<mxfile host="app.diagrams.net" agent="Mozilla/5.0 (Windows NT 10.0; Win64; x64) AppleWebKit/537.36 (KHTML, like Gecko) Chrome/137.0.0.0 Safari/537.36" version="27.1.6">
  <diagram id="cu020" name="CU020 – Editar Recurso">
    <mxGraphModel grid="1" page="1" gridSize="10" guides="1" tooltips="1" connect="1" arrows="1" fold="1" pageScale="1" pageWidth="1169" pageHeight="827" math="0" shadow="0">
      <root>
        <mxCell id="0" />
        <mxCell id="1" parent="0" />
        <mxCell id="adminHeader" value="Administrador" style="rounded=1;whiteSpace=wrap;html=1;align=center;verticalAlign=middle;" vertex="1" parent="1">
          <mxGeometry x="100" y="50" width="130" height="30" as="geometry" />
        </mxCell>
        <mxCell id="adminLife" style="dashed=1;endArrow=none;" edge="1" parent="1" source="6K7ECuoIWv4B0oF5-EMV-58" target="6K7ECuoIWv4B0oF5-EMV-2">
          <mxGeometry relative="1" as="geometry">
            <mxPoint x="165" y="80" as="sourcePoint" />
            <mxPoint x="165" y="600" as="targetPoint" />
          </mxGeometry>
        </mxCell>
        <mxCell id="sistemaHeader" value="Sistema" style="rounded=1;whiteSpace=wrap;html=1;align=center;verticalAlign=middle;" vertex="1" parent="1">
          <mxGeometry x="400" y="50" width="130" height="30" as="geometry" />
        </mxCell>
        <mxCell id="sistemaLife" style="dashed=1;endArrow=none;" edge="1" parent="1" target="6K7ECuoIWv4B0oF5-EMV-3">
          <mxGeometry relative="1" as="geometry">
            <mxPoint x="465" y="600" as="sourcePoint" />
            <mxPoint x="465" y="600" as="targetPoint" />
          </mxGeometry>
        </mxCell>
        <mxCell id="bdHeader" value="Base de Datos" style="rounded=1;whiteSpace=wrap;html=1;align=center;verticalAlign=middle;" vertex="1" parent="1">
          <mxGeometry x="700" y="50" width="130" height="30" as="geometry" />
        </mxCell>
        <mxCell id="bdLife" style="dashed=1;endArrow=none;" edge="1" parent="1" source="6K7ECuoIWv4B0oF5-EMV-50" target="6K7ECuoIWv4B0oF5-EMV-5">
          <mxGeometry relative="1" as="geometry">
            <mxPoint x="765" y="80" as="sourcePoint" />
            <mxPoint x="765" y="600" as="targetPoint" />
          </mxGeometry>
        </mxCell>
        <mxCell id="msg1" value="1. Pulsa apartado &quot;Recursos&quot;" style="endArrow=block;html=1;" edge="1" parent="1">
          <mxGeometry x="0.0324" y="10" relative="1" as="geometry">
            <mxPoint x="165" y="100" as="sourcePoint" />
            <mxPoint x="465" y="100" as="targetPoint" />
            <mxPoint as="offset" />
          </mxGeometry>
        </mxCell>
        <mxCell id="msg2" value="2. Mostrar apartado &quot;Recursos&quot;" style="endArrow=block;html=1;" edge="1" parent="1">
          <mxGeometry x="-0.0333" y="-10" relative="1" as="geometry">
            <mxPoint x="465" y="130" as="sourcePoint" />
            <mxPoint x="165" y="130" as="targetPoint" />
            <mxPoint as="offset" />
          </mxGeometry>
        </mxCell>
        <mxCell id="msg3" value="3. Consultar recursos" style="endArrow=block;html=1;" edge="1" parent="1">
          <mxGeometry x="0.0333" y="10" relative="1" as="geometry">
            <mxPoint x="465" y="160" as="sourcePoint" />
            <mxPoint x="765" y="160" as="targetPoint" />
            <mxPoint as="offset" />
          </mxGeometry>
        </mxCell>
        <mxCell id="msg4" value="4. Listado de recursos" style="endArrow=block;html=1;" edge="1" parent="1">
          <mxGeometry x="-0.0333" y="-10" relative="1" as="geometry">
            <mxPoint x="765" y="190" as="sourcePoint" />
            <mxPoint x="465" y="190" as="targetPoint" />
            <mxPoint as="offset" />
          </mxGeometry>
        </mxCell>
        <mxCell id="msg5" value="5. Mostrar listado de recursos" style="endArrow=block;html=1;" edge="1" parent="1">
          <mxGeometry x="0.0333" y="-10" relative="1" as="geometry">
            <mxPoint x="465" y="220" as="sourcePoint" />
            <mxPoint x="165" y="220" as="targetPoint" />
            <mxPoint as="offset" />
          </mxGeometry>
        </mxCell>
        <mxCell id="msg6" value="6. Pulsa botón &quot;Editar&quot;" style="endArrow=block;html=1;" edge="1" parent="1">
          <mxGeometry x="-0.0333" y="10" relative="1" as="geometry">
            <mxPoint x="165" y="250" as="sourcePoint" />
            <mxPoint x="465" y="250" as="targetPoint" />
            <mxPoint as="offset" />
          </mxGeometry>
        </mxCell>
        <mxCell id="msg7" value="7. Mostrar campos para diligenciar" style="endArrow=block;html=1;" edge="1" parent="1">
          <mxGeometry x="0.0333" y="-10" relative="1" as="geometry">
            <mxPoint x="465" y="280" as="sourcePoint" />
            <mxPoint x="165" y="280" as="targetPoint" />
            <mxPoint as="offset" />
          </mxGeometry>
        </mxCell>
        <mxCell id="msg8" value="8. Diligencia formulario&amp;nbsp;" style="endArrow=block;html=1;" edge="1" parent="1">
          <mxGeometry x="0.0324" y="10" relative="1" as="geometry">
            <mxPoint x="165" y="310" as="sourcePoint" />
            <mxPoint x="465" y="310" as="targetPoint" />
            <mxPoint as="offset" />
          </mxGeometry>
        </mxCell>
        <mxCell id="6K7ECuoIWv4B0oF5-EMV-2" value="Administrador" style="rounded=1;whiteSpace=wrap;html=1;align=center;verticalAlign=middle;" vertex="1" parent="1">
          <mxGeometry x="100" y="710" width="130" height="30" as="geometry" />
        </mxCell>
        <mxCell id="6K7ECuoIWv4B0oF5-EMV-3" value="Sistema" style="rounded=1;whiteSpace=wrap;html=1;align=center;verticalAlign=middle;" vertex="1" parent="1">
          <mxGeometry x="400" y="710" width="130" height="30" as="geometry" />
        </mxCell>
        <mxCell id="6K7ECuoIWv4B0oF5-EMV-5" value="Base de Datos" style="rounded=1;whiteSpace=wrap;html=1;align=center;verticalAlign=middle;" vertex="1" parent="1">
          <mxGeometry x="700" y="710" width="130" height="30" as="geometry" />
        </mxCell>
        <mxCell id="6K7ECuoIWv4B0oF5-EMV-14" value="" style="dashed=1;endArrow=none;exitX=0.75;exitY=1;exitDx=0;exitDy=0;" edge="1" parent="1" source="3YLqXhW3wcMVU4HOmqJP-3">
          <mxGeometry relative="1" as="geometry">
            <mxPoint x="465" y="390" as="sourcePoint" />
            <mxPoint x="465" y="610" as="targetPoint" />
          </mxGeometry>
        </mxCell>
        <mxCell id="6K7ECuoIWv4B0oF5-EMV-35" value="10.&amp;nbsp;Notificación de error: Datos inválidos" style="dashed=1;endArrow=block;html=1;" edge="1" parent="1">
          <mxGeometry x="-0.0333" y="-10" relative="1" as="geometry">
            <mxPoint x="465" y="460" as="sourcePoint" />
            <mxPoint x="165" y="460" as="targetPoint" />
            <mxPoint as="offset" />
          </mxGeometry>
        </mxCell>
        <mxCell id="6K7ECuoIWv4B0oF5-EMV-39" value="[Datos no válidos]" style="text;html=1;strokeColor=none;fillColor=none;align=left;verticalAlign=middle;whiteSpace=wrap;rounded=0;fontFamily=Verdana;fontSize=11;fontStyle=1;" vertex="1" parent="1">
          <mxGeometry x="410" y="400" width="126" height="20" as="geometry" />
        </mxCell>
        <mxCell id="6K7ECuoIWv4B0oF5-EMV-44" value="" style="dashed=1;endArrow=none;" edge="1" parent="1" target="6K7ECuoIWv4B0oF5-EMV-45">
          <mxGeometry relative="1" as="geometry">
            <mxPoint x="165.0000000000001" y="560" as="sourcePoint" />
            <mxPoint x="165" y="660" as="targetPoint" />
          </mxGeometry>
        </mxCell>
        <mxCell id="6K7ECuoIWv4B0oF5-EMV-45" value="" style="rounded=0;whiteSpace=wrap;html=1;" vertex="1" parent="1">
          <mxGeometry x="162.5" y="450" width="5" height="30" as="geometry" />
        </mxCell>
        <mxCell id="6K7ECuoIWv4B0oF5-EMV-47" value="" style="dashed=1;endArrow=none;" edge="1" parent="1" target="6K7ECuoIWv4B0oF5-EMV-46">
          <mxGeometry relative="1" as="geometry">
            <mxPoint x="465" y="80" as="sourcePoint" />
            <mxPoint x="465" y="610" as="targetPoint" />
          </mxGeometry>
        </mxCell>
        <mxCell id="6K7ECuoIWv4B0oF5-EMV-46" value="" style="rounded=0;whiteSpace=wrap;html=1;" vertex="1" parent="1">
          <mxGeometry x="462.5" y="100" width="5" height="20" as="geometry" />
        </mxCell>
        <mxCell id="6K7ECuoIWv4B0oF5-EMV-49" value="" style="dashed=1;endArrow=none;" edge="1" parent="1" target="6K7ECuoIWv4B0oF5-EMV-48">
          <mxGeometry relative="1" as="geometry">
            <mxPoint x="165" y="80" as="sourcePoint" />
            <mxPoint x="165" y="710" as="targetPoint" />
          </mxGeometry>
        </mxCell>
        <mxCell id="6K7ECuoIWv4B0oF5-EMV-48" value="" style="rounded=0;whiteSpace=wrap;html=1;" vertex="1" parent="1">
          <mxGeometry x="162.5" y="120" width="5" height="30" as="geometry" />
        </mxCell>
        <mxCell id="6K7ECuoIWv4B0oF5-EMV-51" value="" style="dashed=1;endArrow=none;" edge="1" parent="1" target="6K7ECuoIWv4B0oF5-EMV-50">
          <mxGeometry relative="1" as="geometry">
            <mxPoint x="765" y="80" as="sourcePoint" />
            <mxPoint x="765" y="710" as="targetPoint" />
          </mxGeometry>
        </mxCell>
        <mxCell id="6K7ECuoIWv4B0oF5-EMV-50" value="" style="rounded=0;whiteSpace=wrap;html=1;" vertex="1" parent="1">
          <mxGeometry x="762.5" y="160" width="5" height="20" as="geometry" />
        </mxCell>
        <mxCell id="6K7ECuoIWv4B0oF5-EMV-53" value="" style="dashed=1;endArrow=none;" edge="1" parent="1" source="6K7ECuoIWv4B0oF5-EMV-46" target="6K7ECuoIWv4B0oF5-EMV-52">
          <mxGeometry relative="1" as="geometry">
            <mxPoint x="465" y="130" as="sourcePoint" />
            <mxPoint x="465" y="610" as="targetPoint" />
          </mxGeometry>
        </mxCell>
        <mxCell id="6K7ECuoIWv4B0oF5-EMV-52" value="" style="rounded=0;whiteSpace=wrap;html=1;" vertex="1" parent="1">
          <mxGeometry x="462.5" y="190" width="5" height="20" as="geometry" />
        </mxCell>
        <mxCell id="6K7ECuoIWv4B0oF5-EMV-55" value="" style="dashed=1;endArrow=none;" edge="1" parent="1" source="6K7ECuoIWv4B0oF5-EMV-48" target="6K7ECuoIWv4B0oF5-EMV-54">
          <mxGeometry relative="1" as="geometry">
            <mxPoint x="165" y="160" as="sourcePoint" />
            <mxPoint x="165" y="710" as="targetPoint" />
          </mxGeometry>
        </mxCell>
        <mxCell id="6K7ECuoIWv4B0oF5-EMV-54" value="" style="rounded=0;whiteSpace=wrap;html=1;" vertex="1" parent="1">
          <mxGeometry x="162.5" y="220" width="5" height="20" as="geometry" />
        </mxCell>
        <mxCell id="6K7ECuoIWv4B0oF5-EMV-57" value="" style="dashed=1;endArrow=none;" edge="1" parent="1" source="6K7ECuoIWv4B0oF5-EMV-52" target="6K7ECuoIWv4B0oF5-EMV-56">
          <mxGeometry relative="1" as="geometry">
            <mxPoint x="465" y="220" as="sourcePoint" />
            <mxPoint x="465" y="610" as="targetPoint" />
          </mxGeometry>
        </mxCell>
        <mxCell id="6K7ECuoIWv4B0oF5-EMV-56" value="" style="rounded=0;whiteSpace=wrap;html=1;" vertex="1" parent="1">
          <mxGeometry x="462.5" y="250" width="5" height="20" as="geometry" />
        </mxCell>
        <mxCell id="6K7ECuoIWv4B0oF5-EMV-59" value="" style="dashed=1;endArrow=none;" edge="1" parent="1" source="6K7ECuoIWv4B0oF5-EMV-54" target="6K7ECuoIWv4B0oF5-EMV-58">
          <mxGeometry relative="1" as="geometry">
            <mxPoint x="165" y="250" as="sourcePoint" />
            <mxPoint x="165" y="710" as="targetPoint" />
          </mxGeometry>
        </mxCell>
        <mxCell id="6K7ECuoIWv4B0oF5-EMV-58" value="" style="rounded=0;whiteSpace=wrap;html=1;" vertex="1" parent="1">
          <mxGeometry x="162.5" y="280" width="5" height="30" as="geometry" />
        </mxCell>
        <mxCell id="6K7ECuoIWv4B0oF5-EMV-61" value="" style="dashed=1;endArrow=none;" edge="1" parent="1" source="6K7ECuoIWv4B0oF5-EMV-56" target="6K7ECuoIWv4B0oF5-EMV-60">
          <mxGeometry relative="1" as="geometry">
            <mxPoint x="465" y="280" as="sourcePoint" />
            <mxPoint x="465" y="610" as="targetPoint" />
          </mxGeometry>
        </mxCell>
        <mxCell id="6K7ECuoIWv4B0oF5-EMV-60" value="" style="rounded=0;whiteSpace=wrap;html=1;" vertex="1" parent="1">
          <mxGeometry x="462.5" y="310" width="5" height="30" as="geometry" />
        </mxCell>
        <mxCell id="6K7ECuoIWv4B0oF5-EMV-63" value="" style="dashed=1;endArrow=none;" edge="1" parent="1" source="6K7ECuoIWv4B0oF5-EMV-60">
          <mxGeometry relative="1" as="geometry">
            <mxPoint x="465" y="340" as="sourcePoint" />
            <mxPoint x="465" y="360" as="targetPoint" />
          </mxGeometry>
        </mxCell>
        <mxCell id="3YLqXhW3wcMVU4HOmqJP-2" value="9. Pulsar botón &quot;Guardar&quot;" style="endArrow=block;html=1;" edge="1" parent="1">
          <mxGeometry x="0.0333" y="10" relative="1" as="geometry">
            <mxPoint x="165" y="350" as="sourcePoint" />
            <mxPoint x="465" y="350" as="targetPoint" />
            <mxPoint as="offset" />
          </mxGeometry>
        </mxCell>
        <mxCell id="3YLqXhW3wcMVU4HOmqJP-3" value="" style="rounded=0;whiteSpace=wrap;html=1;" vertex="1" parent="1">
          <mxGeometry x="462.5" y="350" width="5" height="30" as="geometry" />
        </mxCell>
        <mxCell id="3YLqXhW3wcMVU4HOmqJP-14" value="frame" style="shape=umlFrame;whiteSpace=wrap;html=1;pointerEvents=0;" vertex="1" parent="1">
          <mxGeometry x="150" y="390" width="630" height="100" as="geometry" />
        </mxCell>
        <mxCell id="3YLqXhW3wcMVU4HOmqJP-15" value="11. Insertar edición recurso" style="endArrow=block;html=1;" edge="1" parent="1">
          <mxGeometry x="-0.0023" y="20" relative="1" as="geometry">
            <mxPoint x="465" y="540" as="sourcePoint" />
            <mxPoint x="765" y="540" as="targetPoint" />
            <mxPoint as="offset" />
          </mxGeometry>
        </mxCell>
        <mxCell id="3YLqXhW3wcMVU4HOmqJP-16" value="12.&amp;nbsp;Confirmar&amp;nbsp;edición de recurso" style="endArrow=block;html=1;" edge="1" parent="1">
          <mxGeometry y="-20" relative="1" as="geometry">
            <mxPoint x="765" y="580" as="sourcePoint" />
            <mxPoint x="465" y="580" as="targetPoint" />
            <mxPoint as="offset" />
          </mxGeometry>
        </mxCell>
        <mxCell id="3YLqXhW3wcMVU4HOmqJP-17" value="13. Notificación de éxito: Recurso editado correctamente" style="dashed=1;endArrow=block;html=1;" edge="1" parent="1">
          <mxGeometry x="0.0333" y="-10" relative="1" as="geometry">
            <mxPoint x="465" y="620" as="sourcePoint" />
            <mxPoint x="165" y="620" as="targetPoint" />
            <mxPoint as="offset" />
          </mxGeometry>
        </mxCell>
        <mxCell id="3YLqXhW3wcMVU4HOmqJP-18" value="" style="rounded=0;whiteSpace=wrap;html=1;" vertex="1" parent="1">
          <mxGeometry x="762.5" y="540" width="5" height="20" as="geometry" />
        </mxCell>
        <mxCell id="3YLqXhW3wcMVU4HOmqJP-19" value="" style="rounded=0;whiteSpace=wrap;html=1;" vertex="1" parent="1">
          <mxGeometry x="462.5" y="580" width="5" height="30" as="geometry" />
        </mxCell>
        <mxCell id="3YLqXhW3wcMVU4HOmqJP-20" value="" style="rounded=0;whiteSpace=wrap;html=1;" vertex="1" parent="1">
          <mxGeometry x="162.5" y="620" width="5" height="30" as="geometry" />
        </mxCell>
      </root>
    </mxGraphModel>
  </diagram>
</mxfile>
